<svg xmlns="http://www.w3.org/2000/svg" width="620" height="366" viewBox="0 0 620 366" version="1.1"><path d="M 568.500 11.332 C 561.608 13.604, 549.531 22.171, 546.632 26.845 C 546.155 27.614, 532.430 41.458, 516.132 57.607 C 499.834 73.757, 485.825 87.680, 485 88.548 C 481.379 92.355, 440.955 132.760, 438.368 135.158 C 436.791 136.620, 433.864 139.545, 431.864 141.658 C 429.864 143.771, 425.168 148.425, 421.428 152 C 393.978 178.244, 391.760 200.026, 415.329 211.913 C 427.533 218.068, 453 213.210, 453 204.726 C 453 203.842, 471.476 185.274, 480.616 176.973 C 482.752 175.033, 486.080 171.658, 488.011 169.473 C 489.942 167.288, 493.914 163.299, 496.837 160.610 C 499.760 157.920, 503.249 153.983, 504.589 151.860 C 505.929 149.737, 507.462 148, 507.996 148 C 508.815 148, 529.478 127.563, 546.119 110.293 C 548.659 107.657, 553.263 103.069, 556.350 100.097 C 559.437 97.125, 562.220 93.975, 562.534 93.097 C 562.848 92.219, 565.329 89.808, 568.047 87.739 C 570.765 85.671, 574.108 82.205, 575.476 80.038 C 576.845 77.870, 579.541 75.025, 581.468 73.715 C 586.190 70.507, 598.724 56.318, 600.539 52.128 C 602.978 46.498, 602.172 46.262, 599.414 51.798 C 597.729 55.178, 592.499 61.360, 584.414 69.528 C 577.586 76.425, 572 82.461, 572 82.940 C 572 83.420, 569.735 85.440, 566.967 87.428 C 564.199 89.417, 561.551 92.047, 561.084 93.272 C 560.616 94.497, 557.593 97.897, 554.367 100.828 C 551.140 103.758, 548.197 106.458, 547.827 106.828 C 541.590 113.064, 499.433 156.104, 490.641 165.213 C 484.118 171.971, 477.210 178.712, 475.290 180.192 C 473.370 181.673, 470.758 184.295, 469.486 186.020 C 468.214 187.744, 464.436 191.525, 461.090 194.422 C 457.745 197.319, 453.693 201.503, 452.087 203.721 C 442.193 217.380, 416.569 217.460, 407.265 203.861 C 393.698 184.033, 396.155 178.439, 435.427 139.727 C 447.017 128.302, 462.631 112.777, 470.124 105.227 C 477.618 97.677, 485.088 90.150, 486.726 88.500 C 488.363 86.850, 492.132 83.177, 495.102 80.337 C 498.071 77.497, 502.086 73.447, 504.025 71.337 C 505.964 69.227, 512.488 62.775, 518.524 57 C 524.559 51.225, 530.726 44.987, 532.229 43.138 C 533.731 41.289, 536.995 38.190, 539.482 36.252 C 541.969 34.315, 544.944 31.209, 546.092 29.352 C 562.718 2.450, 599.967 7.875, 602.045 37.500 L 602.676 46.500 602.828 38.500 C 603.070 25.809, 598.463 18.460, 586.296 12.126 C 582.792 10.302, 572.957 9.863, 568.500 11.332 M 50.750 15.749 C 61.338 15.911, 78.663 15.911, 89.250 15.749 C 99.838 15.587, 91.175 15.454, 70 15.454 C 48.825 15.454, 40.163 15.587, 50.750 15.749 M 217.209 16.668 C 209.370 20.531, 209.998 11.652, 210.015 118.385 C 210.031 223.823, 209.552 216.810, 217.027 220.996 C 221.748 223.639, 247.663 225.411, 251.349 223.342 C 252.217 222.855, 246.241 222.459, 237.175 222.402 C 208.160 222.222, 211 233.534, 211 118.149 L 211 23.392 214.555 19.946 L 218.109 16.500 269.805 15.978 L 321.500 15.456 271 15.251 C 226.170 15.069, 220.130 15.228, 217.209 16.668 M 111.250 16.716 C 112.763 16.945, 115.237 16.945, 116.750 16.716 C 118.263 16.487, 117.025 16.300, 114 16.300 C 110.975 16.300, 109.737 16.487, 111.250 16.716 M 20.636 19.636 C 19.186 21.086, 18.029 22.999, 18.063 23.886 C 18.108 25.030, 18.375 24.885, 18.980 23.388 C 19.449 22.227, 21.057 20.314, 22.552 19.138 C 24.047 17.962, 24.820 17, 24.271 17 C 23.722 17, 22.086 18.186, 20.636 19.636 M 126.784 19.053 C 130.790 20.087, 135.053 21.624, 136.256 22.467 C 137.460 23.310, 138.907 23.998, 139.473 23.996 C 140.038 23.994, 139.002 23.079, 137.171 21.963 C 133.826 19.923, 123.912 16.926, 121.040 17.086 C 120.193 17.133, 122.778 18.018, 126.784 19.053 M 330.187 17.520 C 330.473 17.806, 334.206 18.710, 338.483 19.528 C 347.326 21.220, 353.363 24.193, 361.115 30.672 L 366.500 35.173 361.217 30.228 C 354.072 23.539, 347.770 20.305, 338.379 18.508 C 329.501 16.809, 329.472 16.806, 330.187 17.520 M 147.773 29.868 C 153.115 35.211, 158.367 42.254, 159.950 46.200 C 160.549 47.692, 160.895 47.935, 160.937 46.890 C 161.056 43.850, 148.922 28.099, 144.735 25.858 C 143.585 25.243, 144.952 27.047, 147.773 29.868 M 17.479 116.500 C 17.479 166.550, 17.601 186.879, 17.750 161.674 C 17.899 136.470, 17.899 95.520, 17.750 70.674 C 17.601 45.829, 17.479 66.450, 17.479 116.500 M 367.681 37.947 C 368.330 38.804, 369.565 40.853, 370.425 42.502 C 371.284 44.151, 371.990 44.808, 371.994 43.962 C 371.997 43.116, 370.762 41.067, 369.250 39.407 C 367.738 37.748, 367.031 37.091, 367.681 37.947 M 373.040 50.124 C 373.018 50.468, 373.675 52.662, 374.500 55 C 376.497 60.659, 376.497 82.857, 374.501 88.462 C 372.543 93.960, 373.401 94.136, 375.490 88.665 C 377.849 82.487, 377.346 57.053, 374.774 52.500 C 373.843 50.850, 373.062 49.781, 373.040 50.124 M 264.229 76.178 L 264.459 98.500 264.749 76.677 L 265.039 54.853 285.270 55.214 C 296.396 55.413, 306.400 55.930, 307.500 56.363 L 309.500 57.151 307.500 55.826 C 306.044 54.861, 299.851 54.412, 284.750 54.178 L 264 53.855 264.229 76.178 M 71.445 56.282 C 71.175 56.987, 71.076 65.875, 71.227 76.032 L 71.500 94.500 78.500 94.583 L 85.500 94.666 79.250 94.285 L 73 93.905 73 74.854 L 73 55.804 86.468 56.152 C 93.875 56.343, 99.163 56.194, 98.218 55.820 C 94.880 54.500, 71.978 54.895, 71.445 56.282 M 163.450 66.674 C 163.477 73.178, 163.156 79.850, 162.736 81.500 C 162.062 84.147, 162.118 84.265, 163.206 82.500 C 164.698 80.080, 165.532 60.466, 164.282 57.174 C 163.694 55.624, 163.416 58.797, 163.450 66.674 M 102.979 58.116 C 104.343 58.660, 106.165 59.644, 107.028 60.303 C 107.892 60.961, 107.538 60.487, 106.243 59.250 C 104.948 58.013, 103.126 57.029, 102.194 57.063 C 101.068 57.106, 101.331 57.458, 102.979 58.116 M 312.628 58.589 C 314.348 59.437, 316.579 61.659, 317.584 63.526 C 318.590 65.393, 319.578 66.756, 319.780 66.553 C 321.422 64.911, 314.136 56.976, 311.027 57.023 C 310.187 57.035, 310.908 57.740, 312.628 58.589 M 110.849 73.016 C 111.263 82.129, 108.044 89.892, 102.705 92.652 C 101.115 93.475, 100.067 94.400, 100.376 94.709 C 105.386 99.720, 115.558 73.139, 111.231 66.340 C 110.825 65.702, 110.653 68.707, 110.849 73.016 M 320.328 74.500 C 320.333 78.350, 320.513 79.802, 320.730 77.728 C 320.946 75.653, 320.943 72.503, 320.722 70.728 C 320.501 68.952, 320.324 70.650, 320.328 74.500 M 317.994 86.015 C 316.672 89.205, 313.702 91.246, 306 94.256 C 302.950 95.448, 302.467 95.834, 304.500 95.452 C 311.547 94.128, 322.122 85.788, 319.754 83.421 C 319.487 83.154, 318.695 84.322, 317.994 86.015 M 158.920 90.562 C 157.501 93.502, 156.728 95.668, 157.202 95.375 C 158.269 94.716, 162.399 86.056, 161.878 85.570 C 161.670 85.375, 160.339 87.622, 158.920 90.562 M 369.584 99.998 C 366.197 106.931, 361.723 111.496, 353.500 116.410 C 350.200 118.381, 347.891 119.996, 348.369 119.997 C 353.298 120.012, 367.867 106.815, 371.173 99.343 C 374.118 92.685, 372.914 93.182, 369.584 99.998 M 152.439 100.064 C 150.716 101.862, 150.201 102.860, 151.192 102.480 C 152.625 101.930, 156.690 97, 155.710 97 C 155.525 97, 154.053 98.379, 152.439 100.064 M 276 98 L 265.500 98.609 275 98.696 C 280.225 98.744, 287.200 98.448, 290.500 98.038 L 296.500 97.294 291.500 97.343 C 288.750 97.370, 281.775 97.665, 276 98 M 146.519 104.561 C 145.430 105.384, 142.842 106.566, 140.769 107.187 C 138.696 107.808, 137 108.679, 137 109.123 C 137 110.178, 146.072 106.305, 147.964 104.442 C 149.858 102.577, 149.056 102.643, 146.519 104.561 M 142.083 111.373 C 143.112 112.294, 149 114.999, 149 114.551 C 149 113.975, 143.456 111, 142.383 111 C 141.989 111, 141.854 111.168, 142.083 111.373 M 152 116.268 C 152 116.486, 153.800 118.112, 156 119.880 C 158.200 121.648, 159.990 122.736, 159.979 122.297 C 159.958 121.511, 152 115.497, 152 116.268 M 164.239 127.417 C 166.032 129.817, 167.630 131.662, 167.789 131.518 C 168.334 131.023, 163.500 124.110, 162.239 123.582 C 161.545 123.292, 162.445 125.017, 164.239 127.417 M 324 123.699 C 322.075 123.907, 319.938 124.270, 319.252 124.507 C 318.532 124.754, 321.921 128.914, 327.252 134.326 C 332.338 139.490, 339.875 147.698, 344 152.564 C 348.125 157.431, 354.425 164.357, 358 167.957 C 361.575 171.556, 365.362 175.851, 366.417 177.500 C 367.471 179.150, 371.335 183.650, 375.004 187.500 C 378.672 191.350, 382.422 195.613, 383.337 196.973 C 384.252 198.332, 385 198.965, 385 198.378 C 385 197.310, 379.235 190.445, 371.250 182.004 C 368.913 179.533, 367 177.147, 367 176.703 C 367 176.259, 363.738 172.657, 359.750 168.698 C 355.762 164.739, 350.383 158.800, 347.797 155.500 C 345.210 152.200, 337.785 143.980, 331.297 137.233 L 319.500 124.966 326 124.913 C 329.575 124.883, 333.400 124.473, 334.500 124 C 336.620 123.089, 331.103 122.930, 324 123.699 M 71.759 131.545 C 70.297 133.065, 70.923 181.691, 72.420 182.934 C 73.317 183.678, 77.842 183.957, 85.642 183.748 L 97.500 183.430 85.250 183.215 L 73 183 73 157.353 L 73 131.706 87.250 132.340 C 95.088 132.689, 102.850 133.203, 104.500 133.483 L 107.500 133.992 104.500 132.922 C 100.887 131.632, 72.810 130.452, 71.759 131.545 M 263.998 169.500 C 263.988 211.631, 263.700 214.392, 258.894 218.436 C 257.218 219.846, 256.265 221, 256.777 221 C 263.801 221, 264.944 214.124, 265.006 171.500 L 265.060 134.500 269 139 C 271.167 141.475, 276.216 147.923, 280.220 153.329 C 284.224 158.736, 288.941 165.036, 290.703 167.329 C 292.464 169.623, 295.614 174.103, 297.703 177.285 C 299.791 180.467, 303.686 185.642, 306.359 188.785 C 309.031 191.928, 312.788 196.975, 314.708 200 C 318.462 205.915, 326.638 214.825, 331.500 218.299 C 333.150 219.478, 331.066 217.060, 326.868 212.925 C 322.671 208.791, 317.525 202.734, 315.434 199.465 C 313.343 196.196, 309.749 191.491, 307.448 189.011 C 305.146 186.530, 302.467 182.925, 301.493 181 C 300.520 179.075, 298.060 175.475, 296.027 173 C 293.994 170.525, 290.472 165.735, 288.200 162.356 C 285.929 158.978, 283.483 155.603, 282.765 154.856 C 282.046 154.110, 279.689 151.065, 277.526 148.089 C 275.364 145.114, 272.288 141.289, 270.691 139.589 C 269.094 137.890, 266.937 135.150, 265.898 133.500 C 264.025 130.528, 264.007 130.862, 263.998 169.500 M 111.894 136.638 C 117.519 140.578, 121.691 157.999, 119.067 166.587 C 116.736 174.214, 114.769 177.784, 112.271 178.923 C 110.880 179.556, 109.986 180.319, 110.284 180.617 C 112.330 182.664, 116.737 176.771, 119.720 168 C 123.275 157.547, 117.046 135, 110.603 135 C 110.027 135, 110.607 135.737, 111.894 136.638 M 169.044 136.282 C 169.020 136.712, 169.712 138.737, 170.582 140.782 C 171.452 142.827, 172.555 147.425, 173.033 151 L 173.902 157.500 173.516 150.330 C 173.207 144.587, 169.273 132.230, 169.044 136.282 M 567.296 147.967 C 565.391 148.420, 560.543 151.925, 555.338 156.614 C 544.812 166.096, 525.528 184.547, 522.603 187.936 C 521.446 189.276, 518.547 192.201, 516.161 194.436 C 505.255 204.650, 411.990 298.168, 407.857 303.034 C 391.696 322.063, 398.830 350.152, 421.033 354.914 C 424.447 355.646, 453.040 356, 508.733 356 C 601.437 356, 596.748 356.368, 602.243 348.664 L 604.500 345.500 604.500 255.500 L 604.500 165.500 602.330 161.447 C 595.832 149.309, 582.775 144.286, 567.296 147.967 M 173.336 173 C 173.336 177.125, 173.513 178.813, 173.728 176.750 C 173.944 174.688, 173.944 171.313, 173.728 169.250 C 173.513 167.188, 173.336 168.875, 173.336 173 M 170.147 187.511 C 168.884 191.031, 166.647 195.496, 165.176 197.431 C 163.704 199.367, 161.332 202.670, 159.905 204.771 C 157.076 208.935, 144.815 215.852, 135.500 218.537 C 130.828 219.884, 130.762 219.945, 134.500 219.472 C 143.382 218.348, 156.991 210.166, 162.728 202.500 C 167.433 196.213, 173.999 182.665, 172.882 181.549 C 172.640 181.307, 171.410 183.990, 170.147 187.511 M 386.252 206.500 C 386.263 208.700, 386.468 209.482, 386.707 208.238 C 386.946 206.994, 386.937 205.194, 386.687 204.238 C 386.437 203.282, 386.241 204.300, 386.252 206.500 M 385.079 213.076 C 384.707 220.508, 360.107 225.311, 340.500 221.780 L 336.500 221.059 340 222.454 C 354.077 228.061, 388.846 220.738, 385.689 212.830 C 385.302 211.862, 385.136 211.929, 385.079 213.076 M 18.048 213.349 C 17.898 215.995, 21.485 220.973, 24.230 221.930 C 27.672 223.130, 114.785 223.365, 121.414 222.192 C 123.566 221.812, 103.091 221.621, 75.914 221.768 C 21.592 222.063, 22.847 222.192, 19.798 215.972 C 18.862 214.063, 18.074 212.882, 18.048 213.349 M 26.457 269.252 C 26.193 269.940, 26.094 288.503, 26.238 310.502 L 26.500 350.500 34.847 350.792 C 40.141 350.977, 43.707 350.658, 44.597 349.920 C 46.506 348.336, 46.700 271.100, 44.800 269.200 C 43.120 267.520, 27.104 267.565, 26.457 269.252 M 290.250 268.716 C 291.762 268.945, 294.238 268.945, 295.750 268.716 C 297.262 268.487, 296.025 268.300, 293 268.300 C 289.975 268.300, 288.738 268.487, 290.250 268.716 M 27.472 270.212 C 27.199 270.923, 27.094 289.054, 27.238 310.502 L 27.500 349.500 35.628 349.788 C 45.892 350.153, 44.973 354.357, 44.716 308.257 L 44.500 269.500 36.234 269.209 C 30.180 268.996, 27.836 269.265, 27.472 270.212 M 59.457 270.252 C 59.193 270.941, 59.094 289.278, 59.238 311.002 L 59.500 350.500 67.750 350.790 C 72.287 350.950, 76.001 350.725, 76.002 350.290 C 76.003 349.856, 72.515 349.500, 68.252 349.500 L 60.500 349.500 60.239 309.750 L 59.977 270 68.796 270 L 77.615 270 79.381 274.002 C 80.352 276.203, 83.701 281.970, 86.823 286.817 C 89.946 291.664, 93.058 296.500, 93.740 297.565 C 94.421 298.629, 95.910 301.220, 97.047 303.322 C 98.965 306.869, 107.930 319, 108.633 319 C 108.804 319, 108.844 308.087, 108.722 294.750 L 108.500 270.500 114.750 270.202 L 121 269.905 121 309.952 L 121 350 115.026 350 C 109.399 350, 108.961 349.825, 107.500 347 C 105.335 342.813, 104.666 343.232, 106.701 347.500 C 108.368 350.994, 108.381 351, 115.185 351 L 122 351 122 309.956 L 122 268.912 114.750 269.206 L 107.500 269.500 107.500 292.784 L 107.500 316.067 104.756 312.784 C 103.247 310.978, 100.660 307.250, 99.006 304.500 C 95.234 298.227, 94.643 297.284, 88.361 287.502 C 85.535 283.101, 82.040 277.137, 80.594 274.250 L 77.966 269 68.952 269 C 62.655 269, 59.792 269.377, 59.457 270.252 M 279.220 271.578 C 274.107 274.126, 268.962 279.052, 269.040 281.327 C 269.062 281.972, 269.711 281.339, 270.482 279.921 C 272.079 276.984, 278.507 272.450, 283.871 270.476 C 285.867 269.742, 286.801 269.109, 285.946 269.070 C 285.092 269.032, 282.065 270.160, 279.220 271.578 M 305.804 271.446 C 319.570 276.559, 322.871 287.346, 312 291.695 L 306.500 293.895 304.873 290.139 C 299.584 277.935, 281.166 277.720, 282.200 289.874 C 282.571 294.238, 285.341 296.029, 296.206 298.929 C 321.336 305.638, 331.186 324.275, 318.607 341.314 C 310.533 352.250, 281.243 351.397, 271.607 339.944 C 270.173 338.241, 269 337.478, 269 338.249 C 269 347.231, 301.930 353.840, 313.535 347.187 C 320.366 343.270, 323.353 337.277, 323.813 326.560 L 324.202 317.500 320.136 311.426 C 315.279 304.171, 309.838 301.142, 295.023 297.444 C 284.900 294.917, 283.043 293.584, 283.015 288.823 C 282.957 278.634, 299.353 280.044, 303.694 290.601 C 304.687 293.016, 305.725 294.967, 306 294.937 C 306.275 294.906, 309.200 293.888, 312.500 292.674 L 318.500 290.466 318.476 284.764 C 318.446 277.606, 314.458 272.807, 306.596 270.473 C 299.124 268.254, 298.680 268.800, 305.804 271.446 M 132.992 270.907 L 140.483 271.500 142.699 276 C 143.917 278.475, 145.603 282.702, 146.446 285.393 C 147.288 288.084, 149.117 293.136, 150.511 296.619 C 151.904 300.102, 154.172 307.293, 155.551 312.598 C 158.661 324.569, 160.156 327.148, 161.841 323.449 C 163.400 320.027, 163.252 318.918, 161.627 321.848 L 160.324 324.197 159.196 321.348 C 158.575 319.782, 157.408 315.569, 156.603 311.986 C 155.797 308.403, 153.940 302.328, 152.475 298.486 C 151.010 294.644, 148.792 288.556, 147.545 284.958 C 146.298 281.361, 144.695 277.311, 143.983 275.958 C 143.271 274.606, 142.374 272.825, 141.989 272 C 141.460 270.865, 139.369 270.477, 133.395 270.407 L 125.500 270.314 132.992 270.907 M 178.317 271.250 C 176.697 273.778, 168 299.427, 168 301.676 C 168 302.394, 166.825 306.386, 165.388 310.546 C 163.951 314.706, 162.993 318.326, 163.258 318.591 C 163.715 319.048, 165.946 312.250, 171.657 293 C 173.044 288.325, 175.335 281.462, 176.749 277.750 L 179.318 271 187.276 271 C 196.289 271, 195.828 269.953, 191.677 281 C 188.377 289.781, 183.387 304.375, 181.572 310.555 C 180.755 313.335, 179.814 316.485, 179.480 317.555 C 179.146 318.625, 179.574 318.294, 180.432 316.820 C 181.289 315.346, 182.646 311.331, 183.447 307.897 C 184.730 302.395, 186.991 295.973, 194.107 277.617 C 197.078 269.953, 197.118 270, 187.559 270 C 181.900 270, 178.854 270.412, 178.317 271.250 M 203.463 271.237 C 203.195 271.935, 203.094 289.829, 203.238 311.003 L 203.500 349.500 230.378 349.767 C 261.661 350.077, 260.209 350.505, 259.792 341.093 L 259.500 334.500 239.750 334.229 L 220 333.958 220 324.502 L 220 315.046 237.750 314.748 L 255.500 314.451 237.215 314.225 L 218.930 314 219.215 324.250 L 219.500 334.500 239 335 L 258.500 335.500 258.797 341.719 C 259.172 349.581, 261.018 349.136, 229.500 348.781 L 204.500 348.500 204.238 309.734 L 203.976 270.967 230.738 271.234 L 257.500 271.500 257.500 277 L 257.500 282.500 238.500 283 L 219.500 283.500 219.199 290.476 C 218.784 300.098, 218.579 300, 239.147 300 L 255.912 300 256.272 306.750 L 256.631 313.500 256.566 306.500 L 256.500 299.500 239.572 299.225 C 219.779 298.903, 220 299.003, 220 290.399 L 220 284.043 239.250 283.772 L 258.500 283.500 258.500 277 L 258.500 270.500 231.225 270.234 C 209.914 270.026, 203.843 270.245, 203.463 271.237 M 325.206 277.235 L 325.500 284.500 336 285 L 346.500 285.500 347 317.500 L 347.500 349.500 354.978 349.798 C 365.196 350.206, 365.053 350.486, 364.779 330.559 L 364.558 314.500 364.286 329.500 C 363.909 350.402, 364.465 349.148, 355.720 348.793 L 348.500 348.500 348 316.500 L 347.500 284.500 337 284 L 326.500 283.500 326.202 277.235 L 325.904 270.970 355.702 271.235 L 385.500 271.500 385.401 275.080 C 385.347 277.050, 385 279.862, 384.632 281.330 L 383.962 284 373.981 284 C 368.491 284, 363.999 284.337, 363.998 284.750 C 363.994 286.065, 383.764 284.989, 384.907 283.612 C 385.481 282.921, 386.074 279.687, 386.225 276.427 L 386.500 270.500 355.706 270.235 L 324.912 269.971 325.206 277.235 M 126.090 275.500 C 125.999 277.543, 131.523 293.686, 134.474 300 C 136.714 304.792, 135.719 301.179, 131.996 291 C 130.286 286.325, 128.277 280.475, 127.533 278 C 126.788 275.525, 126.139 274.400, 126.090 275.500 M 364.328 299.500 C 364.333 303.350, 364.513 304.802, 364.730 302.728 C 364.946 300.653, 364.943 297.503, 364.722 295.728 C 364.501 293.952, 364.324 295.650, 364.328 299.500 M 269.063 299.938 C 268.909 303.435, 276.086 310.726, 281.500 312.572 C 282.600 312.947, 281.475 311.915, 279 310.278 C 273.775 306.823, 271.496 304.438, 270.116 300.979 C 269.572 299.616, 269.098 299.147, 269.063 299.938 M 79.044 303.008 C 79.003 305.354, 84.302 314.336, 89.069 320 C 91.968 323.444, 90.450 320.625, 85.744 313.826 C 83.584 310.705, 81.202 306.430, 80.452 304.326 C 79.324 301.161, 79.080 300.933, 79.044 303.008 M 136.601 307.500 C 136.920 309.700, 137.982 313.300, 138.961 315.500 C 139.940 317.700, 140.989 320.175, 141.292 321 C 141.648 321.972, 141.870 322.049, 141.921 321.218 C 141.964 320.513, 141.274 318.263, 140.387 316.218 C 139.500 314.173, 138.154 310.475, 137.398 308 L 136.022 303.500 136.601 307.500 M 284 313.428 C 284 313.635, 287.254 314.793, 291.230 316.001 C 303.101 319.607, 309.051 326.504, 304.678 331.588 C 299.514 337.592, 286.170 334.479, 276.196 324.945 C 269.665 318.702, 267.557 318.717, 267.357 325.009 L 267.214 329.500 267.857 325.578 C 268.735 320.223, 270.037 320.178, 274.954 325.338 C 287.588 338.595, 313.471 338.481, 306.603 325.199 C 303.850 319.875, 284 309.537, 284 313.428 M 175.295 328.026 C 173.615 332.687, 171.423 339.104, 170.425 342.287 L 168.611 348.075 160.629 347.787 L 152.648 347.500 147.657 335.250 C 144.912 328.513, 142.485 323.182, 142.263 323.403 C 142.042 323.625, 142.756 325.987, 143.851 328.653 C 144.945 331.319, 147.153 336.875, 148.757 341 L 151.674 348.500 160.695 348.786 L 169.716 349.071 171.454 342.786 C 172.409 339.329, 174.512 333.168, 176.127 329.095 C 177.742 325.023, 178.903 321.209, 178.707 320.622 C 178.511 320.034, 176.976 323.366, 175.295 328.026 M 91.639 324.250 C 94.604 329.149, 102.224 340.020, 103.050 340.531 C 103.606 340.874, 101.332 337.070, 97.998 332.078 C 94.664 327.085, 91.699 323, 91.409 323 C 91.119 323, 91.222 323.563, 91.639 324.250" stroke="none" fill="#fbc40e" fill-rule="evenodd"/><path d="M 566.816 13.324 C 559.999 16.201, 548.909 24.793, 546.058 29.406 C 544.928 31.234, 541.969 34.315, 539.482 36.252 C 536.995 38.190, 533.731 41.289, 532.229 43.138 C 530.726 44.987, 524.559 51.225, 518.524 57 C 512.488 62.775, 505.964 69.227, 504.025 71.337 C 502.086 73.447, 498.071 77.497, 495.102 80.337 C 492.132 83.177, 488.363 86.850, 486.726 88.500 C 485.088 90.150, 477.618 97.677, 470.124 105.227 C 462.631 112.777, 447.017 128.302, 435.427 139.727 C 396.155 178.439, 393.698 184.033, 407.265 203.861 C 416.569 217.460, 442.193 217.380, 452.087 203.721 C 453.693 201.503, 457.745 197.319, 461.090 194.422 C 464.436 191.525, 468.214 187.744, 469.486 186.020 C 470.758 184.295, 473.370 181.673, 475.290 180.192 C 477.210 178.712, 484.118 171.971, 490.641 165.213 C 499.433 156.104, 541.590 113.064, 547.827 106.828 C 548.197 106.458, 551.140 103.758, 554.367 100.828 C 557.593 97.897, 560.616 94.497, 561.084 93.272 C 561.551 92.047, 564.199 89.417, 566.967 87.428 C 569.735 85.440, 572 83.420, 572 82.940 C 572 82.461, 577.586 76.425, 584.414 69.528 C 599.678 54.108, 602 50.047, 602 38.772 C 602 18.975, 584.101 6.030, 566.816 13.324 M 27.667 16.926 C 25.558 17.359, 22.633 18.912, 21.167 20.379 L 18.500 23.045 18.235 117.507 C 17.943 221.607, 17.713 217.484, 24 220.741 C 28.205 222.919, 122.199 221.916, 131.500 219.594 C 142.810 216.770, 156.648 209.503, 160.039 204.607 C 161.604 202.348, 163.871 199.231, 165.077 197.680 C 184.859 172.226, 172.981 125.230, 143.522 112.396 C 135.717 108.996, 135.698 108.932, 141.842 106.750 C 180.167 93.138, 167.568 29.217, 124.425 18.386 C 116.864 16.488, 35.773 15.265, 27.667 16.926 M 219 16.673 C 218.175 16.988, 216.037 18.629, 214.250 20.319 L 211 23.392 211 118.149 C 211 233.486, 208.191 222.221, 237 222.402 C 264.462 222.575, 263.357 224.652, 264 171.678 C 264.275 149.030, 264.840 131.400, 265.256 132.500 C 265.671 133.600, 267.696 136.311, 269.756 138.524 C 271.815 140.737, 275.291 145.012, 277.479 148.024 C 279.668 151.036, 282.046 154.110, 282.765 154.856 C 283.483 155.603, 285.929 158.978, 288.200 162.356 C 290.472 165.735, 293.994 170.525, 296.027 173 C 298.060 175.475, 300.520 179.075, 301.493 181 C 302.467 182.925, 305.146 186.530, 307.448 189.011 C 309.749 191.491, 313.343 196.196, 315.434 199.465 C 327.217 217.885, 335.686 222.515, 357.500 222.466 C 389.196 222.395, 395.553 209.577, 374.915 187.353 C 370.012 182.074, 366 177.366, 366 176.892 C 366 176.419, 362.738 172.734, 358.750 168.705 C 354.762 164.676, 348.125 157.405, 344 152.548 C 339.875 147.690, 332.338 139.490, 327.252 134.326 C 321.982 128.976, 318.540 124.758, 319.252 124.523 C 319.938 124.295, 324.550 123.652, 329.500 123.093 C 350.694 120.699, 362.777 113.628, 369.818 99.500 C 384.964 69.111, 372.107 28.099, 345.240 21.100 C 327.129 16.382, 330.345 16.597, 274 16.342 C 244.575 16.209, 219.825 16.358, 219 16.673 M 264 75.981 L 264 97.962 266.651 98.627 C 271.159 99.759, 294.226 98.116, 302.096 96.103 C 316.192 92.498, 319.936 88.622, 320.785 76.755 C 322.102 58.356, 314.844 54, 282.870 54 L 264 54 264 75.981 M 71.445 56.282 C 71.175 56.987, 71.076 65.875, 71.227 76.032 L 71.500 94.500 86.384 94.777 C 110.293 95.223, 123.108 72.784, 106.714 59.178 C 102.108 55.355, 72.727 52.943, 71.445 56.282 M 71.758 131.546 C 70.531 132.822, 70.904 181.180, 72.153 182.684 C 74.549 185.572, 104.328 183.758, 111.794 180.269 C 122.682 175.182, 123.763 145.862, 113.394 136.854 C 108.641 132.725, 74.776 128.407, 71.758 131.546 M 27.472 270.212 C 27.199 270.923, 27.094 289.054, 27.238 310.502 L 27.500 349.500 35.628 349.788 C 45.892 350.153, 44.973 354.357, 44.716 308.257 L 44.500 269.500 36.234 269.209 C 30.180 268.996, 27.836 269.265, 27.472 270.212 M 283.763 270.463 C 262.157 278.693, 263.178 307.147, 285.291 313.072 C 301.453 317.402, 309.770 324.020, 306.918 330.281 C 302.955 338.979, 285.362 336.259, 274.954 325.338 C 268.793 318.873, 267.088 320.546, 268.480 331.689 C 271.213 353.557, 314.921 355.992, 321.947 334.667 C 327.638 317.393, 318.655 304.922, 296.206 298.929 C 285.341 296.029, 282.571 294.238, 282.200 289.874 C 281.166 277.720, 299.584 277.935, 304.873 290.139 L 306.500 293.895 312 291.694 C 318.721 289.005, 320.013 284.289, 315.761 277.967 C 311.134 271.088, 293.176 266.877, 283.763 270.463 M 60.239 309.750 L 60.500 349.500 68 349.500 L 75.500 349.500 75.767 323.142 C 76.043 295.867, 76.932 291.606, 79.983 302.937 C 80.532 304.975, 86.082 314.272, 92.318 323.598 C 98.553 332.925, 104.900 342.680, 106.423 345.278 L 109.190 350 115.095 350 L 121 350 121 309.952 L 121 269.905 114.750 270.202 L 108.500 270.500 108.722 294.750 C 108.844 308.087, 108.804 319, 108.633 319 C 107.930 319, 98.965 306.869, 97.047 303.322 C 95.910 301.220, 94.421 298.629, 93.740 297.565 C 93.058 296.500, 89.946 291.664, 86.823 286.817 C 83.701 281.970, 80.352 276.203, 79.381 274.002 L 77.615 270 68.796 270 L 59.977 270 60.239 309.750 M 126.012 271.706 C 126.035 273.259, 128.945 282.627, 132.004 291 C 133.712 295.675, 135.957 302.425, 136.991 306 C 139.217 313.690, 143.321 324.884, 148.723 338 L 152.636 347.500 160.568 347.776 L 168.500 348.052 173.302 334.276 C 175.944 326.699, 179.227 317.125, 180.598 313 C 185.264 298.965, 189.229 287.513, 191.677 281 C 195.828 269.953, 196.289 271, 187.276 271 L 179.318 271 176.745 277.750 C 173.556 286.112, 170.195 296.756, 168.455 304 C 162.997 326.714, 159.776 328.860, 155.551 312.598 C 154.172 307.293, 151.904 300.102, 150.511 296.619 C 149.117 293.136, 147.288 288.084, 146.446 285.393 C 145.603 282.702, 143.916 278.475, 142.697 276 L 140.480 271.500 133.240 271.206 C 129.258 271.045, 126.005 271.270, 126.012 271.706 M 204.238 309.734 L 204.500 348.500 229.500 348.781 C 261.018 349.136, 259.172 349.581, 258.797 341.719 L 258.500 335.500 239 335 L 219.500 334.500 219.215 324.250 L 218.930 314 237.465 314 L 256 314 256 307 L 256 300 239.191 300 C 218.574 300, 218.784 300.100, 219.199 290.476 L 219.500 283.500 238.500 283 L 257.500 282.500 257.500 277 L 257.500 271.500 230.738 271.234 L 203.976 270.967 204.238 309.734 M 326.202 277.235 L 326.500 283.500 337 284 L 347.500 284.500 348 316.500 L 348.500 348.500 355.410 348.799 C 364.512 349.194, 363.967 351.328, 363.985 315.250 L 364 284 373.981 284 L 383.962 284 384.632 281.330 C 385 279.862, 385.347 277.050, 385.401 275.080 L 385.500 271.500 355.702 271.235 L 325.904 270.970 326.202 277.235" stroke="none" fill="#055a5e" fill-rule="evenodd"/></svg>